<svg width="28" height="28" viewBox="0 0 28 28" fill="none" xmlns="http://www.w3.org/2000/svg">
<g clip-path="url(#clip0_4_1747)">
<path d="M27.5113 8.60123L25.1959 6.28586L26.9365 4.54598C27.0903 4.39225 27.1769 4.18394 27.1769 3.96607C27.1769 3.74819 27.0903 3.53989 26.9365 3.38611L24.6062 1.05576C24.2985 0.74814 23.7538 0.74814 23.4462 1.05576L21.7063 2.7963L19.3906 0.480499C18.7499 -0.160166 17.7111 -0.160166 17.0704 0.480499C16.4297 1.12116 16.4297 2.15996 17.0704 2.80068L25.191 10.9214C25.8318 11.5621 26.8706 11.5621 27.5113 10.9214C28.1519 10.2807 28.1519 9.24195 27.5113 8.60123Z" fill="#BABABA"/>
<path d="M10.9296 25.1993L2.80903 17.0786C2.16826 16.4379 1.12957 16.4379 0.4888 17.0786C-0.151866 17.7194 -0.151866 18.7581 0.4888 19.3988L2.80455 21.7146L1.06739 23.451C0.913558 23.6048 0.827043 23.8131 0.827043 24.031C0.827043 24.2488 0.913558 24.4571 1.06739 24.6109L3.39774 26.9405C3.55792 27.1008 3.76781 27.1809 3.97771 27.1809C4.1876 27.1809 4.39749 27.1008 4.55767 26.9406L6.29411 25.2041L8.60947 27.5195C9.25014 28.1602 10.2889 28.1602 10.9296 27.5195C11.5704 26.8788 11.5704 25.84 10.9296 25.1993Z" fill="#BABABA"/>
<path d="M14.7502 9.76129L9.77002 14.7584L13.2503 18.2387L18.2305 13.2415L14.7502 9.76129Z" fill="#BABABA"/>
<path d="M25.1909 13.2416L14.75 2.80069C14.1093 2.16002 13.0705 2.16002 12.4298 2.80069C11.789 3.44146 11.789 4.48015 12.4298 5.12092L22.8707 15.5618C23.5114 16.2025 24.5502 16.2025 25.1909 15.5618C25.8317 14.9212 25.8317 13.8824 25.1909 13.2416Z" fill="#BABABA"/>
<path d="M15.5703 22.8791L5.12932 12.4381C4.48865 11.7975 3.44986 11.7975 2.80919 12.4381C2.16842 13.0789 2.16842 14.1177 2.80919 14.7584L13.2501 25.1993C13.8908 25.8399 14.9296 25.8399 15.5703 25.1993C16.211 24.5586 16.211 23.5198 15.5703 22.8791Z" fill="#BABABA"/>
</g>
<defs>
<clipPath id="clip0_4_1747">
<rect width="28" height="28" fill="white"/>
</clipPath>
</defs>
</svg>
