<svg width="34" height="34" viewBox="0 0 34 34" fill="none" xmlns="http://www.w3.org/2000/svg">
<g clip-path="url(#clip0_5_1607)">
<path d="M17.9992 31.6094H3.27261C1.61458 31.6094 0.265625 30.2605 0.265625 28.6024V5.39761C0.265625 3.73947 1.61447 2.39062 3.27261 2.39062H28.6024C30.2604 2.39062 31.6094 3.73947 31.6094 5.39761V17.9988C31.6094 18.4387 31.2525 18.7956 30.8125 18.7956C30.3725 18.7956 30.0156 18.4387 30.0156 17.9988V5.39761C30.0156 4.61837 29.3816 3.98438 28.6024 3.98438H3.27261C2.49337 3.98438 1.85938 4.61837 1.85938 5.39761V28.6024C1.85938 29.3816 2.49337 30.0156 3.27261 30.0156H17.9993C18.4393 30.0156 18.7962 30.3725 18.7962 30.8125C18.7962 31.2525 18.4392 31.6094 17.9992 31.6094Z" fill="#D5FF5F"/>
<path d="M30.8125 10.3594H1.0625C0.622519 10.3594 0.265625 10.0025 0.265625 9.5625C0.265625 9.12252 0.622519 8.76562 1.0625 8.76562H30.8125C31.2525 8.76562 31.6094 9.12252 31.6094 9.5625C31.6094 10.0025 31.2525 10.3594 30.8125 10.3594Z" fill="#D5FF5F"/>
<path d="M15.9375 6.10938C15.4975 6.10938 15.1406 5.75248 15.1406 5.3125V1.0625C15.1406 0.622519 15.4975 0.265625 15.9375 0.265625C16.3775 0.265625 16.7344 0.622519 16.7344 1.0625V5.3125C16.7344 5.75248 16.3775 6.10938 15.9375 6.10938Z" fill="#D5FF5F"/>
<path d="M5.3125 6.10938C4.87252 6.10938 4.51562 5.75248 4.51562 5.3125V1.0625C4.51562 0.622519 4.87252 0.265625 5.3125 0.265625C5.75248 0.265625 6.10938 0.622519 6.10938 1.0625V5.3125C6.10938 5.75248 5.75248 6.10938 5.3125 6.10938Z" fill="#D5FF5F"/>
<path d="M26.5625 6.10938C26.1225 6.10938 25.7656 5.75248 25.7656 5.3125V1.0625C25.7656 0.622519 26.1225 0.265625 26.5625 0.265625C27.0025 0.265625 27.3594 0.622519 27.3594 1.0625V5.3125C27.3594 5.75248 27.0025 6.10938 26.5625 6.10938Z" fill="#D5FF5F"/>
<path d="M9.5625 18.8594H5.3125C4.87252 18.8594 4.51562 18.5025 4.51562 18.0625V13.8125C4.51562 13.3725 4.87252 13.0156 5.3125 13.0156H9.5625C10.0025 13.0156 10.3594 13.3725 10.3594 13.8125V18.0625C10.3594 18.5025 10.0025 18.8594 9.5625 18.8594ZM6.10938 17.2656H8.76562V14.6094H6.10938V17.2656Z" fill="#D5FF5F"/>
<path d="M18.0625 18.8594H13.8125C13.3725 18.8594 13.0156 18.5025 13.0156 18.0625V13.8125C13.0156 13.3725 13.3725 13.0156 13.8125 13.0156H18.0625C18.5025 13.0156 18.8594 13.3725 18.8594 13.8125V18.0625C18.8594 18.5025 18.5025 18.8594 18.0625 18.8594ZM14.6094 17.2656H17.2656V14.6094H14.6094V17.2656Z" fill="#D5FF5F"/>
<path d="M9.5625 27.3594H5.3125C4.87252 27.3594 4.51562 27.0025 4.51562 26.5625V22.3125C4.51562 21.8725 4.87252 21.5156 5.3125 21.5156H9.5625C10.0025 21.5156 10.3594 21.8725 10.3594 22.3125V26.5625C10.3594 27.0025 10.0025 27.3594 9.5625 27.3594ZM6.10938 25.7656H8.76562V23.1094H6.10938V25.7656Z" fill="#D5FF5F"/>
<path d="M26.5625 33.7344C22.6082 33.7344 19.3906 30.5173 19.3906 26.5625C19.3906 22.6077 22.6082 19.3906 26.5625 19.3906C30.5168 19.3906 33.7344 22.6077 33.7344 26.5625C33.7344 30.5173 30.5168 33.7344 26.5625 33.7344ZM26.5625 20.9844C23.4871 20.9844 20.9844 23.4866 20.9844 26.5625C20.9844 29.6384 23.4871 32.1406 26.5625 32.1406C29.6379 32.1406 32.1406 29.6384 32.1406 26.5625C32.1406 23.4866 29.6379 20.9844 26.5625 20.9844Z" fill="#D5FF5F"/>
<path d="M28.6875 27.3594H26.5625C26.1225 27.3594 25.7656 27.0025 25.7656 26.5625V23.375C25.7656 22.935 26.1225 22.5781 26.5625 22.5781C27.0025 22.5781 27.3594 22.935 27.3594 23.375V25.7656H28.6875C29.1275 25.7656 29.4844 26.1225 29.4844 26.5625C29.4844 27.0025 29.1275 27.3594 28.6875 27.3594Z" fill="#D5FF5F"/>
</g>
<defs>
<clipPath id="clip0_5_1607">
<rect width="34" height="34" fill="white"/>
</clipPath>
</defs>
</svg>
