<svg width="34" height="34" viewBox="0 0 34 34" fill="none" xmlns="http://www.w3.org/2000/svg">
<path d="M30.8125 5.79594V9.16406H1.0625V5.79594C1.0625 4.57406 2.05062 3.58594 3.2725 3.58594H28.6025C29.8244 3.58594 30.8125 4.57406 30.8125 5.79594Z" fill="#2D2D35"/>
<path d="M14.6094 15.0078H17.2656V17.6641H14.6094V15.0078Z" fill="#2D2D35"/>
<path d="M6.10938 15.0078V17.6641H8.76562V15.0078H6.10938ZM6.10938 15.0078V17.6641H8.76562V15.0078H6.10938ZM1.0625 10.7578V29.0009C1.0625 30.2228 2.05062 31.2109 3.2725 31.2109H19.8369C19.0506 29.9891 18.5938 28.5228 18.5938 26.9609C18.5938 22.5622 22.1637 18.9922 26.5625 18.9922C28.1244 18.9922 29.5906 19.4491 30.8125 20.2353V10.7578H1.0625ZM10.3594 26.9609C10.3594 27.3966 9.99813 27.7578 9.5625 27.7578H5.3125C4.87687 27.7578 4.51562 27.3966 4.51562 26.9609V22.7109C4.51562 22.2753 4.87687 21.9141 5.3125 21.9141H9.5625C9.99813 21.9141 10.3594 22.2753 10.3594 22.7109V26.9609ZM10.3594 18.4609C10.3594 18.8966 9.99813 19.2578 9.5625 19.2578H5.3125C4.87687 19.2578 4.51562 18.8966 4.51562 18.4609V14.2109C4.51562 13.7753 4.87687 13.4141 5.3125 13.4141H9.5625C9.99813 13.4141 10.3594 13.7753 10.3594 14.2109V18.4609ZM18.8594 18.4609C18.8594 18.8966 18.4981 19.2578 18.0625 19.2578H13.8125C13.3769 19.2578 13.0156 18.8966 13.0156 18.4609V14.2109C13.0156 13.7753 13.3769 13.4141 13.8125 13.4141H18.0625C18.4981 13.4141 18.8594 13.7753 18.8594 14.2109V18.4609ZM6.10938 26.1641H8.76562V23.5078H6.10938V26.1641ZM6.10938 17.6641H8.76562V15.0078H6.10938V17.6641Z" fill="#2D2D35"/>
<path d="M15.9375 6.50781C15.4975 6.50781 15.1406 6.15092 15.1406 5.71094V1.46094C15.1406 1.02096 15.4975 0.664062 15.9375 0.664062C16.3775 0.664062 16.7344 1.02096 16.7344 1.46094V5.71094C16.7344 6.15092 16.3775 6.50781 15.9375 6.50781Z" fill="#2D2D35"/>
<path d="M5.3125 6.50781C4.87252 6.50781 4.51562 6.15092 4.51562 5.71094V1.46094C4.51562 1.02096 4.87252 0.664062 5.3125 0.664062C5.75248 0.664062 6.10938 1.02096 6.10938 1.46094V5.71094C6.10938 6.15092 5.75248 6.50781 5.3125 6.50781Z" fill="#2D2D35"/>
<path d="M26.5625 6.50781C26.1225 6.50781 25.7656 6.15092 25.7656 5.71094V1.46094C25.7656 1.02096 26.1225 0.664062 26.5625 0.664062C27.0025 0.664062 27.3594 1.02096 27.3594 1.46094V5.71094C27.3594 6.15092 27.0025 6.50781 26.5625 6.50781Z" fill="#2D2D35"/>
<path d="M26.5625 20.5859C23.0456 20.5859 20.1875 23.4441 20.1875 26.9609C20.1875 30.4778 23.0456 33.3359 26.5625 33.3359C30.0794 33.3359 32.9375 30.4778 32.9375 26.9609C32.9375 23.4441 30.0794 20.5859 26.5625 20.5859ZM28.6875 27.7578H26.5625C26.1269 27.7578 25.7656 27.3966 25.7656 26.9609V23.7734C25.7656 23.3378 26.1269 22.9766 26.5625 22.9766C26.9981 22.9766 27.3594 23.3378 27.3594 23.7734V26.1641H28.6875C29.1231 26.1641 29.4844 26.5253 29.4844 26.9609C29.4844 27.3966 29.1231 27.7578 28.6875 27.7578Z" fill="#2D2D35"/>
</svg>
