<svg width="14" height="18" viewBox="0 0 14 18" fill="none" xmlns="http://www.w3.org/2000/svg">
<path d="M12.2502 0H1.8064C0.955826 0 0.208984 0.699729 0.208984 1.52798V16.9775C0.208984 17.2548 0.286147 17.4858 0.410508 17.6644C0.559231 17.8778 0.798699 18.0001 1.05548 18C1.29826 18 1.55675 17.8919 1.79545 17.688L6.468 13.7208C6.61231 13.5976 6.81961 13.5269 7.03514 13.5269C7.25058 13.5269 7.45745 13.5976 7.60219 13.7212L12.2591 17.6874C12.4987 17.8919 12.7393 18.0001 12.9817 18.0001C13.3915 18.0001 13.791 17.684 13.791 16.9776V1.52798C13.791 0.699729 13.1008 0 12.2502 0Z" fill="#2D2D35"/>
</svg>
