<svg width="34" height="34" viewBox="0 0 34 34" fill="none" xmlns="http://www.w3.org/2000/svg">
<g clip-path="url(#clip0_5_1609)">
<path d="M33.0828 14.7884C33.082 14.7876 33.0813 14.7868 33.0805 14.786L19.2112 0.917236C18.62 0.325806 17.834 0 16.998 0C16.1619 0 15.376 0.325546 14.7845 0.916977L0.92249 14.7788C0.91782 14.7834 0.913151 14.7884 0.908482 14.793C-0.305507 16.014 -0.303432 17.9951 0.914448 19.2129C1.47086 19.7696 2.20574 20.092 2.99146 20.1258C3.02337 20.1289 3.05553 20.1304 3.08796 20.1304H3.64074V30.337C3.64074 32.3567 5.28403 34 7.30423 34H12.7303C13.2803 34 13.7264 33.5541 13.7264 33.0039V25.002C13.7264 24.0803 14.4761 23.3306 15.3978 23.3306H18.5982C19.5199 23.3306 20.2695 24.0803 20.2695 25.002V33.0039C20.2695 33.5541 20.7154 34 21.2656 34H26.6917C28.7119 34 30.3552 32.3567 30.3552 30.337V20.1304H30.8678C31.7036 20.1304 32.4896 19.8049 33.0813 19.2135C34.3004 17.9935 34.301 16.0091 33.0828 14.7884Z" fill="#2D2D35"/>
</g>
<defs>
<clipPath id="clip0_5_1609">
<rect width="34" height="34" fill="white"/>
</clipPath>
</defs>
</svg>
