<svg width="34" height="34" viewBox="0 0 34 34" fill="none" xmlns="http://www.w3.org/2000/svg">
<g clip-path="url(#clip0_5_1610)">
<path d="M33.15 14.722C33.149 14.7212 33.1482 14.7202 33.1475 14.7194L19.2781 0.850572C18.6869 0.259141 17.901 -0.0664062 17.0649 -0.0664062C16.2289 -0.0664062 15.4429 0.259141 14.8515 0.850572L0.989386 14.7124C0.984717 14.7171 0.979788 14.722 0.975378 14.7267C-0.238613 15.9476 -0.236538 17.9287 0.981345 19.1466C1.53776 19.7032 2.27238 20.0254 3.0581 20.0594C3.09027 20.0625 3.12243 20.0641 3.15486 20.0641H3.70738V30.2704C3.70738 32.2904 5.35094 33.9337 7.37088 33.9337H12.797C13.3472 33.9337 13.7931 33.4875 13.7931 32.9376V24.9356C13.7931 24.0139 14.543 23.2643 15.4647 23.2643H18.6652C19.5868 23.2643 20.3365 24.0139 20.3365 24.9356V32.9376C20.3365 33.4875 20.7824 33.9337 21.3326 33.9337H26.7587C28.7789 33.9337 30.4222 32.2904 30.4222 30.2704V20.0641H30.9348C31.7706 20.0641 32.5565 19.7385 33.1482 19.1468C34.3674 17.9271 34.3679 15.9425 33.15 14.722ZM31.7394 17.7383C31.5244 17.9533 31.2385 18.0719 30.9348 18.0719H29.4261C28.8759 18.0719 28.43 18.5178 28.43 19.068V30.2704C28.43 31.1918 27.6803 31.9415 26.7587 31.9415H22.3287V24.9356C22.3287 22.9156 20.6854 21.2721 18.6652 21.2721H15.4647C13.4445 21.2721 11.8009 22.9156 11.8009 24.9356V31.9415H7.37088C6.44949 31.9415 5.69957 31.1918 5.69957 30.2704V19.068C5.69957 18.5178 5.25366 18.0719 4.70347 18.0719H3.22074C3.20518 18.0708 3.18988 18.0701 3.17405 18.0698C2.8773 18.0646 2.59896 17.9468 2.3904 17.738C1.94683 17.2945 1.94683 16.5725 2.3904 16.1287C2.39066 16.1287 2.39066 16.1284 2.39092 16.1282L2.3917 16.1274L16.2605 2.25911C16.4753 2.04407 16.7609 1.92579 17.0649 1.92579C17.3687 1.92579 17.6543 2.04407 17.8693 2.25911L31.735 16.1246C31.7371 16.1266 31.7394 16.1287 31.7415 16.1308C32.1827 16.5751 32.182 17.2955 31.7394 17.7383Z" fill="#D5FF5F"/>
</g>
<defs>
<clipPath id="clip0_5_1610">
<rect width="34" height="34" fill="white"/>
</clipPath>
</defs>
</svg>
