<svg width="36" height="28" viewBox="0 0 36 28" fill="none" xmlns="http://www.w3.org/2000/svg">
<path d="M28.5 21.5V24.5H10.5V21.5C10.5 21.5 10.5 15.5 19.5 15.5C28.5 15.5 28.5 21.5 28.5 21.5ZM24 8C24 7.10999 23.7361 6.23996 23.2416 5.49994C22.7471 4.75991 22.0443 4.18314 21.2221 3.84254C20.3998 3.50195 19.495 3.41283 18.6221 3.58647C17.7492 3.7601 16.9474 4.18868 16.318 4.81802C15.6887 5.44736 15.2601 6.24918 15.0865 7.1221C14.9128 7.99501 15.0019 8.89981 15.3425 9.72208C15.6831 10.5443 16.2599 11.2471 16.9999 11.7416C17.74 12.2361 18.61 12.5 19.5 12.5C20.6935 12.5 21.8381 12.0259 22.682 11.182C23.5259 10.3381 24 9.19348 24 8ZM28.8 15.59C29.6199 16.3465 30.281 17.2587 30.7446 18.2734C31.2081 19.2881 31.465 20.385 31.5 21.5V24.5H36V21.5C36 21.5 36 16.325 28.8 15.59ZM27 3.5C26.5468 3.50003 26.0963 3.57088 25.665 3.71C26.5426 4.96846 27.0131 6.46578 27.0131 8C27.0131 9.53423 26.5426 11.0315 25.665 12.29C26.0963 12.4291 26.5468 12.5 27 12.5C28.1935 12.5 29.3381 12.0259 30.182 11.182C31.0259 10.3381 31.5 9.19348 31.5 8C31.5 6.80653 31.0259 5.66194 30.182 4.81802C29.3381 3.97411 28.1935 3.5 27 3.5ZM12 11H7.5V6.5H4.5V11H0V14H4.5V18.5H7.5V14H12V11Z" fill="#BABABA"/>
</svg>
