<svg width="34" height="34" viewBox="0 0 34 34" fill="none" xmlns="http://www.w3.org/2000/svg">
<path d="M17 1C23.2373 1 28.3134 6.07609 28.3135 12.3135L28.3066 12.6748C28.2338 14.4972 27.6212 16.5705 26.6699 18.7217C25.6608 21.0038 24.3017 23.3038 22.9141 25.3809C20.8325 28.4965 18.7163 31.0661 17.6953 32.2598L17.0811 32.9639C17.0487 32.9999 16.9975 33.0093 16.9561 32.9912L16.9189 32.9639L16.3047 32.2598C15.2837 31.0661 13.1675 28.4964 11.0859 25.3809C9.69826 23.3038 8.33922 21.0038 7.33008 18.7217C6.31538 16.427 5.68653 14.2209 5.68652 12.3135C5.68652 6.07614 10.7626 1.00002 17 1ZM17 5.11816C13.0317 5.11818 9.80469 8.34513 9.80469 12.3135C9.8047 16.2818 13.0317 19.5088 17 19.5088C20.9683 19.5088 24.1953 16.2818 24.1953 12.3135C24.1953 8.34516 20.9683 5.11816 17 5.11816Z" stroke="#D5FF5F" stroke-width="2"/>
</svg>
