<svg width="28" height="28" viewBox="0 0 28 28" fill="none" xmlns="http://www.w3.org/2000/svg">
<g clip-path="url(#clip0_4_1751)">
<path d="M24.6094 4.64844C24.6094 2.98993 23.2601 1.64062 21.6016 1.64062H21V4.10156C21 4.55459 20.6327 4.92188 20.1797 4.92188C19.7267 4.92188 19.3594 4.55459 19.3594 4.10156V1.64062H15.75V4.10156C15.75 4.55459 15.3827 4.92188 14.9297 4.92188C14.4767 4.92188 14.1094 4.55459 14.1094 4.10156V1.64062H10.5V4.10156C10.5 4.55459 10.1327 4.92188 9.67969 4.92188C9.22666 4.92188 8.85938 4.55459 8.85938 4.10156V1.64062H5.25V4.10156C5.25 4.55459 4.88272 4.92188 4.42969 4.92188C3.97666 4.92188 3.60938 4.55459 3.60938 4.10156V1.64062H3.00781C1.3493 1.64062 0 2.98993 0 4.64844V7.10938H24.6094V4.64844Z" fill="#BABABA"/>
<path d="M5.25 0.820312C5.25 0.367281 4.88272 0 4.42969 0C3.97666 0 3.60938 0.367281 3.60938 0.820312V1.64062H5.25V0.820312Z" fill="#BABABA"/>
<path d="M21 0.820312C21 0.367281 20.6327 0 20.1797 0C19.7267 0 19.3594 0.367281 19.3594 0.820312V1.64062H21V0.820312Z" fill="#BABABA"/>
<path d="M15.75 0.820312C15.75 0.367281 15.3827 0 14.9297 0C14.4767 0 14.1094 0.367281 14.1094 0.820312V1.64062H15.75V0.820312Z" fill="#BABABA"/>
<path d="M10.5 0.820312C10.5 0.367281 10.1327 0 9.67969 0C9.22666 0 8.85938 0.367281 8.85938 0.820312V1.64062H10.5V0.820312Z" fill="#BABABA"/>
<path d="M21.9844 14.3281C22.9061 14.3281 23.7903 14.4919 24.6094 14.7918V8.75H0V21.0547C0 22.4116 1.10398 23.5156 2.46094 23.5156H14.4821C14.3812 23.0207 14.3281 22.5086 14.3281 21.9844C14.3281 17.7627 17.7627 14.3281 21.9844 14.3281ZM18.9219 11.6211H20.2891C20.7421 11.6211 21.1094 11.9884 21.1094 12.4414C21.1094 12.8944 20.7421 13.2617 20.2891 13.2617H18.9219C18.4688 13.2617 18.1016 12.8944 18.1016 12.4414C18.1016 11.9884 18.4688 11.6211 18.9219 11.6211ZM14.0547 11.6211H15.4219C15.8749 11.6211 16.2422 11.9884 16.2422 12.4414C16.2422 12.8944 15.8749 13.2617 15.4219 13.2617H14.0547C13.6017 13.2617 13.2344 12.8944 13.2344 12.4414C13.2344 11.9884 13.6017 11.6211 14.0547 11.6211ZM5.6875 20.6445H4.32031C3.86728 20.6445 3.5 20.2773 3.5 19.8242C3.5 19.3712 3.86728 19.0039 4.32031 19.0039H5.6875C6.14053 19.0039 6.50781 19.3712 6.50781 19.8242C6.50781 20.2773 6.14053 20.6445 5.6875 20.6445ZM5.6875 16.9531H4.32031C3.86728 16.9531 3.5 16.5858 3.5 16.1328C3.5 15.6798 3.86728 15.3125 4.32031 15.3125H5.6875C6.14053 15.3125 6.50781 15.6798 6.50781 16.1328C6.50781 16.5858 6.14053 16.9531 5.6875 16.9531ZM10.5547 20.6445H9.1875C8.73447 20.6445 8.36719 20.2773 8.36719 19.8242C8.36719 19.3712 8.73447 19.0039 9.1875 19.0039H10.5547C11.0077 19.0039 11.375 19.3712 11.375 19.8242C11.375 20.2773 11.0077 20.6445 10.5547 20.6445ZM10.5547 16.9531H9.1875C8.73447 16.9531 8.36719 16.5858 8.36719 16.1328C8.36719 15.6798 8.73447 15.3125 9.1875 15.3125H10.5547C11.0077 15.3125 11.375 15.6798 11.375 16.1328C11.375 16.5858 11.0077 16.9531 10.5547 16.9531ZM10.5547 13.2617H9.1875C8.73447 13.2617 8.36719 12.8944 8.36719 12.4414C8.36719 11.9884 8.73447 11.6211 9.1875 11.6211H10.5547C11.0077 11.6211 11.375 11.9884 11.375 12.4414C11.375 12.8944 11.0077 13.2617 10.5547 13.2617ZM13.2344 16.1328C13.2344 15.6798 13.6017 15.3125 14.0547 15.3125H15.4219C15.8749 15.3125 16.2422 15.6798 16.2422 16.1328C16.2422 16.5858 15.8749 16.9531 15.4219 16.9531H14.0547C13.6017 16.9531 13.2344 16.5858 13.2344 16.1328Z" fill="#BABABA"/>
<path d="M21.9844 15.9688C18.6674 15.9688 15.9688 18.6674 15.9688 21.9844C15.9688 25.3014 18.6674 28 21.9844 28C25.3014 28 28 25.3014 28 21.9844C28 18.6674 25.3014 15.9688 21.9844 15.9688ZM24.7188 22.8047H21.9844C21.5313 22.8047 21.1641 22.4374 21.1641 21.9844V19.25C21.1641 18.797 21.5313 18.4297 21.9844 18.4297C22.4374 18.4297 22.8047 18.797 22.8047 19.25V21.1641H24.7188C25.1718 21.1641 25.5391 21.5313 25.5391 21.9844C25.5391 22.4374 25.1718 22.8047 24.7188 22.8047Z" fill="#BABABA"/>
</g>
<defs>
<clipPath id="clip0_4_1751">
<rect width="28" height="28" fill="white"/>
</clipPath>
</defs>
</svg>
