<svg width="28" height="28" viewBox="0 0 28 28" fill="none" xmlns="http://www.w3.org/2000/svg">
<g clip-path="url(#clip0_4_1752)">
<path d="M12.7021 24.1753C12.7021 26.2724 14.4083 27.9785 16.5054 27.9785C18.6025 27.9785 20.3087 26.2724 20.3087 24.1753V23.54H12.7021V24.1753Z" fill="#BABABA"/>
<path d="M27.1796 20.2587C26.6129 20.2587 26.1519 19.7976 26.1519 19.2309V12.1479C26.1519 7.93734 23.443 4.25189 19.4888 2.97198C19.471 1.34202 18.1395 0.0214844 16.5054 0.0214844C14.8713 0.0214844 13.5398 1.34208 13.522 2.97198C9.56772 4.25189 6.85889 7.93728 6.85889 12.1479V15.3757L10.5543 14.3855C10.7622 14.3298 10.9764 14.3016 11.1912 14.3016C11.8487 14.3016 12.4669 14.5577 12.9317 15.0227C13.5511 15.6421 13.7951 16.5529 13.5683 17.3994L12.3626 21.8993H27.1796C27.6326 21.8993 27.9999 21.532 27.9999 21.079C27.9999 20.626 27.6326 20.2587 27.1796 20.2587Z" fill="#BABABA"/>
<path d="M10.9791 15.9701L0.854383 18.6831C0.571266 18.759 0.350164 18.9801 0.274312 19.2632C0.198461 19.5463 0.279453 19.8483 0.486664 20.0555L2.32416 21.893L0.240297 23.9769C0.0864063 24.1307 0 24.3393 0 24.5569C0 24.7745 0.0864063 24.9831 0.240297 25.137L2.81712 27.7137C2.9773 27.8739 3.18724 27.954 3.39713 27.954C3.60708 27.954 3.81702 27.8739 3.9772 27.7137L6.06102 25.6299L7.89852 27.4674C8.10573 27.6747 8.40793 27.7557 8.69083 27.6798C8.97395 27.6039 9.19505 27.3828 9.2709 27.0997L11.9838 16.9749C12.0596 16.6919 11.9786 16.3898 11.7714 16.1826C11.5643 15.9752 11.2622 15.8943 10.9791 15.9701Z" fill="#BABABA"/>
</g>
<defs>
<clipPath id="clip0_4_1752">
<rect width="28" height="28" fill="white"/>
</clipPath>
</defs>
</svg>
