<svg width="34" height="34" viewBox="0 0 34 34" fill="none" xmlns="http://www.w3.org/2000/svg">
<path d="M17 0C12.0568 0 8.03516 4.02163 8.03516 8.96484C8.03516 13.9081 12.0568 17.9297 17 17.9297C21.9432 17.9297 25.9648 13.9081 25.9648 8.96484C25.9648 4.02163 21.9432 0 17 0Z" fill="#2D2D35"/>
<path d="M28.154 23.7864C25.6996 21.2943 22.4459 19.9219 18.9922 19.9219H15.0078C11.5542 19.9219 8.30038 21.2943 5.84601 23.7864C3.40365 26.2663 2.05859 29.5397 2.05859 33.0039C2.05859 33.554 2.50458 34 3.05469 34H30.9453C31.4954 34 31.9414 33.554 31.9414 33.0039C31.9414 29.5397 30.5963 26.2663 28.154 23.7864Z" fill="#2D2D35"/>
</svg>
