<svg width="22" height="22" viewBox="0 0 22 22" fill="none" xmlns="http://www.w3.org/2000/svg">
<path d="M19 7.60001L10.62 15.98C10.33 16.27 9.95 16.45 9.54 16.49L6.61 16.76C6.61 16.76 6.53 16.76 6.5 16.76C6.17 16.76 5.85 16.63 5.62 16.39C5.36 16.13 5.23 15.76 5.26 15.39L5.53 12.46C5.57 12.05 5.75 11.67 6.04 11.38L14.4 3.00001L19 7.60001ZM20.94 1.77001L20.23 1.06001C19.16 -0.00999272 17.41 -0.00999272 16.34 1.06001L15.46 1.94001L20.06 6.54001L20.94 5.66001C21.46 5.14001 21.75 4.45001 21.75 3.72001C21.75 2.99001 21.46 2.29001 20.94 1.78001V1.77001ZM19.75 18.01V12.2C19.75 11.79 19.41 11.45 19 11.45C18.59 11.45 18.25 11.79 18.25 12.2V18.01C18.25 19.25 17.24 20.26 16 20.26H4C2.76 20.26 1.75 19.25 1.75 18.01V6.00001C1.75 4.76001 2.76 3.75001 4 3.75001H9.81C10.22 3.75001 10.56 3.41001 10.56 3.00001C10.56 2.59001 10.22 2.25001 9.81 2.25001H4C1.93 2.25001 0.25 3.93001 0.25 6.00001V18C0.25 20.07 1.93 21.75 4 21.75H16C18.07 21.75 19.75 20.07 19.75 18V18.01Z" fill="#034F43"/>
</svg>
